<svg xmlns="http://www.w3.org/2000/svg" viewBox="0 0 96 96" role="img" aria-labelledby="title desc">
  <title id="title">SurTaal logo</title>
  <desc id="desc">A warm circular music mark with a treble-clef-inspired form and rhythmic dots.</desc>
  <defs>
    <linearGradient id="ring" x1="18" y1="12" x2="76" y2="82" gradientUnits="userSpaceOnUse">
      <stop offset="0" stop-color="#d89a52"/>
      <stop offset="1" stop-color="#8b4ea3"/>
    </linearGradient>
    <linearGradient id="glyph" x1="30" y1="18" x2="58" y2="74" gradientUnits="userSpaceOnUse">
      <stop offset="0" stop-color="#fff7eb"/>
      <stop offset="1" stop-color="#f4d8ff"/>
    </linearGradient>
  </defs>
  <circle cx="48" cy="48" r="40" fill="#171722"/>
  <circle cx="48" cy="48" r="38" fill="none" stroke="url(#ring)" stroke-width="4"/>
  <path d="M49 16c-6.8 0-12 4.9-12 11.5 0 6 4.1 10 9.2 13.3-8.2 2.6-13.2 8-13.2 15.4 0 7.9 6 13.8 13.8 13.8 7.5 0 12.7-4.8 12.7-11.4 0-6.1-4.2-10.3-9.3-13.7 8.2-2.6 13.1-7.8 13.1-14.9C63.3 21.6 57.3 16 49 16Zm-.7 48.2c-3.3 0-5.7-2.4-5.7-5.7 0-3.5 2.5-5.8 5.9-5.8 3.3 0 5.8 2.3 5.8 5.7s-2.6 5.8-6 5.8Zm1.3-25.8c-2.9 0-5.2-2.1-5.2-5.2s2.3-5.3 5.2-5.3c3 0 5.1 2.2 5.1 5.3s-2.1 5.2-5.1 5.2Z" fill="url(#glyph)"/>
  <path d="M53.2 16v46.8" fill="none" stroke="url(#glyph)" stroke-width="4.6" stroke-linecap="round"/>
  <circle cx="68.5" cy="30.5" r="3.6" fill="#e0ae59"/>
  <circle cx="74.8" cy="39.8" r="2.4" fill="#b76cc9"/>
  <circle cx="69.4" cy="50.8" r="2.8" fill="#d89a52"/>
</svg>
